<?xml version="1.0" encoding="utf-8" standalone="no"?>
<!DOCTYPE svg PUBLIC "-//W3C//DTD SVG 1.1//EN"
  "http://www.w3.org/Graphics/SVG/1.1/DTD/svg11.dtd">
<svg xmlns:xlink="http://www.w3.org/1999/xlink" width="46.08pt" height="46.08pt" viewBox="0 0 46.08 46.08" xmlns="http://www.w3.org/2000/svg" version="1.1">
 <metadata>
  <rdf:RDF xmlns:dc="http://purl.org/dc/elements/1.1/" xmlns:cc="http://creativecommons.org/ns#" xmlns:rdf="http://www.w3.org/1999/02/22-rdf-syntax-ns#">
   <cc:Work>
    <dc:type rdf:resource="http://purl.org/dc/dcmitype/StillImage"/>
    <dc:date>2026-05-19T10:36:56.032430</dc:date>
    <dc:format>image/svg+xml</dc:format>
    <dc:creator>
     <cc:Agent>
      <dc:title>Matplotlib v3.10.9, https://matplotlib.org/</dc:title>
     </cc:Agent>
    </dc:creator>
   </cc:Work>
  </rdf:RDF>
 </metadata>
 <defs>
  <style type="text/css">*{stroke-linejoin: round; stroke-linecap: butt}</style>
 </defs>
 <g id="figure_1">
  <g id="patch_1">
   <path d="M 0 46.08 
L 46.08 46.08 
L 46.08 0 
L 0 0 
L 0 46.08 
z
" style="fill: none; opacity: 0"/>
  </g>
  <g id="axes_1">
   <g id="patch_2">
    <path d="M 44.6976 23.04 
C 44.6976 20.19595 44.137384 17.379555 43.049013 14.751995 
C 41.960643 12.124436 40.365283 9.736811 38.354236 7.725764 
C 36.343189 5.714717 33.955564 4.119357 31.328005 3.030987 
C 28.700445 1.942616 25.88405 1.3824 23.04 1.3824 
C 20.19595 1.3824 17.379555 1.942616 14.751995 3.030987 
C 12.124436 4.119357 9.736811 5.714717 7.725764 7.725764 
C 5.714717 9.736811 4.119357 12.124436 3.030987 14.751995 
C 1.942616 17.379555 1.3824 20.19595 1.3824 23.04 
C 1.3824 25.88405 1.942616 28.700445 3.030987 31.328005 
C 4.119357 33.955564 5.714717 36.343189 7.725764 38.354236 
C 9.736811 40.365283 12.124436 41.960643 14.751995 43.049013 
C 17.379555 44.137384 20.19595 44.6976 23.04 44.6976 
C 25.88405 44.6976 28.700445 44.137384 31.328005 43.049013 
C 33.955564 41.960643 36.343189 40.365283 38.354236 38.354236 
C 40.365283 36.343189 41.960643 33.955564 43.049013 31.328005 
C 44.137384 28.700445 44.6976 25.88405 44.6976 23.04 
M 23.04 23.04 
C 23.04 23.04 23.04 23.04 23.04 23.04 
C 23.04 23.04 23.04 23.04 23.04 23.04 
C 23.04 23.04 23.04 23.04 23.04 23.04 
C 23.04 23.04 23.04 23.04 23.04 23.04 
C 23.04 23.04 23.04 23.04 23.04 23.04 
C 23.04 23.04 23.04 23.04 23.04 23.04 
C 23.04 23.04 23.04 23.04 23.04 23.04 
C 23.04 23.04 23.04 23.04 23.04 23.04 
C 23.04 23.04 23.04 23.04 23.04 23.04 
C 23.04 23.04 23.04 23.04 23.04 23.04 
C 23.04 23.04 23.04 23.04 23.04 23.04 
C 23.04 23.04 23.04 23.04 23.04 23.04 
C 23.04 23.04 23.04 23.04 23.04 23.04 
C 23.04 23.04 23.04 23.04 23.04 23.04 
C 23.04 23.04 23.04 23.04 23.04 23.04 
C 23.04 23.04 23.04 23.04 23.04 23.04 
z
" style="fill: #ffffff"/>
   </g>
   <g id="patch_3">
    <path d="M 23.04 23.04 
C 23.04 23.04 23.04 23.04 23.04 23.04 
C 23.04 23.04 23.04 23.04 23.04 23.04 
C 23.04 23.04 23.04 23.04 23.04 23.04 
C 23.04 23.04 23.04 23.04 23.04 23.04 
C 23.04 23.04 23.04 23.04 23.04 23.04 
C 23.04 23.04 23.04 23.04 23.04 23.04 
C 23.04 23.04 23.04 23.04 23.04 23.04 
C 23.04 23.04 23.04 23.04 23.04 23.04 
C 23.04 23.04 23.04 23.04 23.04 23.04 
C 23.04 23.04 23.04 23.04 23.04 23.04 
C 23.04 23.04 23.04 23.04 23.04 23.04 
C 23.04 23.04 23.04 23.04 23.04 23.04 
C 23.04 23.04 23.04 23.04 23.04 23.04 
C 23.04 23.04 23.04 23.04 23.04 23.04 
C 23.04 23.04 23.04 23.04 23.04 23.04 
C 23.04 23.04 23.04 23.04 23.04 23.04 
L 46.093312 23.04 
C 46.093312 26.067333 45.496993 29.065229 44.338483 31.862121 
C 43.179973 34.659012 41.481801 37.200505 39.341153 39.341153 
C 37.200505 41.481801 34.659012 43.179973 31.862121 44.338483 
C 29.065229 45.496993 26.067333 46.093312 23.04 46.093312 
C 20.012667 46.093312 17.014771 45.496993 14.217879 44.338483 
C 11.420988 43.179973 8.879495 41.481801 6.738847 39.341153 
C 4.598199 37.200505 2.900027 34.659012 1.741517 31.862121 
C 0.583007 29.065229 -0.013312 26.067333 -0.013312 23.04 
C -0.013312 20.012667 0.583007 17.014771 1.741517 14.217879 
C 2.900027 11.420988 4.598199 8.879495 6.738847 6.738847 
C 8.879495 4.598199 11.420988 2.900027 14.217879 1.741517 
C 17.014771 0.583007 20.012667 -0.013312 23.04 -0.013312 
C 26.067333 -0.013312 29.065229 0.583007 31.862121 1.741517 
C 34.659012 2.900027 37.200505 4.598199 39.341153 6.738847 
C 41.481801 8.879495 43.179973 11.420988 44.338483 14.217879 
C 45.496993 17.014771 46.093312 20.012667 46.093312 23.04 
z
" style="fill: #ffffff"/>
   </g>
   <g id="matplotlib.axis_1">
    <g id="xtick_1">
     <g id="line2d_1">
      <path d="M 23.04 23.04 
L 44.6976 23.04 
" clip-path="url(#pa784071670)" style="fill: none; stroke: #e6e6e6; stroke-width: 0.5; stroke-linecap: square"/>
     </g>
    </g>
    <g id="xtick_2">
     <g id="line2d_2">
      <path d="M 23.04 23.04 
L 38.354236 7.725764 
" clip-path="url(#pa784071670)" style="fill: none; stroke: #e6e6e6; stroke-width: 0.5; stroke-linecap: square"/>
     </g>
    </g>
    <g id="xtick_3">
     <g id="line2d_3">
      <path d="M 23.04 23.04 
L 23.04 1.3824 
" clip-path="url(#pa784071670)" style="fill: none; stroke: #e6e6e6; stroke-width: 0.5; stroke-linecap: square"/>
     </g>
    </g>
    <g id="xtick_4">
     <g id="line2d_4">
      <path d="M 23.04 23.04 
L 7.725764 7.725764 
" clip-path="url(#pa784071670)" style="fill: none; stroke: #e6e6e6; stroke-width: 0.5; stroke-linecap: square"/>
     </g>
    </g>
    <g id="xtick_5">
     <g id="line2d_5">
      <path d="M 23.04 23.04 
L 1.3824 23.04 
" clip-path="url(#pa784071670)" style="fill: none; stroke: #e6e6e6; stroke-width: 0.5; stroke-linecap: square"/>
     </g>
    </g>
    <g id="xtick_6">
     <g id="line2d_6">
      <path d="M 23.04 23.04 
L 7.725764 38.354236 
" clip-path="url(#pa784071670)" style="fill: none; stroke: #e6e6e6; stroke-width: 0.5; stroke-linecap: square"/>
     </g>
    </g>
    <g id="xtick_7">
     <g id="line2d_7">
      <path d="M 23.04 23.04 
L 23.04 44.6976 
" clip-path="url(#pa784071670)" style="fill: none; stroke: #e6e6e6; stroke-width: 0.5; stroke-linecap: square"/>
     </g>
    </g>
    <g id="xtick_8">
     <g id="line2d_8">
      <path d="M 23.04 23.04 
L 38.354236 38.354236 
" clip-path="url(#pa784071670)" style="fill: none; stroke: #e6e6e6; stroke-width: 0.5; stroke-linecap: square"/>
     </g>
    </g>
   </g>
   <g id="matplotlib.axis_2">
    <g id="ytick_1">
     <g id="line2d_9">
      <path d="M 25.4464 23.04 
C 25.4464 22.723994 25.384154 22.411062 25.263224 22.119111 
C 25.142294 21.82716 24.965031 21.561868 24.741582 21.338418 
C 24.518132 21.114969 24.25284 20.937706 23.960889 20.816776 
C 23.668938 20.695846 23.356006 20.6336 23.04 20.6336 
C 22.723994 20.6336 22.411062 20.695846 22.119111 20.816776 
C 21.82716 20.937706 21.561868 21.114969 21.338418 21.338418 
C 21.114969 21.561868 20.937706 21.82716 20.816776 22.119111 
C 20.695846 22.411062 20.6336 22.723994 20.6336 23.04 
C 20.6336 23.356006 20.695846 23.668938 20.816776 23.960889 
C 20.937706 24.25284 21.114969 24.518132 21.338418 24.741582 
C 21.561868 24.965031 21.82716 25.142294 22.119111 25.263224 
C 22.411062 25.384154 22.723994 25.4464 23.04 25.4464 
C 23.356006 25.4464 23.668938 25.384154 23.960889 25.263224 
C 24.25284 25.142294 24.518132 24.965031 24.741582 24.741582 
C 24.965031 24.518132 25.142294 24.25284 25.263224 23.960889 
C 25.384154 23.668938 25.4464 23.356006 25.4464 23.04 
" clip-path="url(#pa784071670)" style="fill: none; stroke: #e6e6e6; stroke-width: 0.5; stroke-linecap: square"/>
     </g>
    </g>
    <g id="ytick_2">
     <g id="line2d_10">
      <path d="M 30.2592 23.04 
C 30.2592 22.091983 30.072461 21.153185 29.709671 20.277332 
C 29.346881 19.401479 28.815094 18.605604 28.144745 17.935255 
C 27.474396 17.264906 26.678521 16.733119 25.802668 16.370329 
C 24.926815 16.007539 23.988017 15.8208 23.04 15.8208 
C 22.091983 15.8208 21.153185 16.007539 20.277332 16.370329 
C 19.401479 16.733119 18.605604 17.264906 17.935255 17.935255 
C 17.264906 18.605604 16.733119 19.401479 16.370329 20.277332 
C 16.007539 21.153185 15.8208 22.091983 15.8208 23.04 
C 15.8208 23.988017 16.007539 24.926815 16.370329 25.802668 
C 16.733119 26.678521 17.264906 27.474396 17.935255 28.144745 
C 18.605604 28.815094 19.401479 29.346881 20.277332 29.709671 
C 21.153185 30.072461 22.091983 30.2592 23.04 30.2592 
C 23.988017 30.2592 24.926815 30.072461 25.802668 29.709671 
C 26.678521 29.346881 27.474396 28.815094 28.144745 28.144745 
C 28.815094 27.474396 29.346881 26.678521 29.709671 25.802668 
C 30.072461 24.926815 30.2592 23.988017 30.2592 23.04 
" clip-path="url(#pa784071670)" style="fill: none; stroke: #e6e6e6; stroke-width: 0.5; stroke-linecap: square"/>
     </g>
    </g>
    <g id="ytick_3">
     <g id="line2d_11">
      <path d="M 35.072 23.04 
C 35.072 21.459972 34.760769 19.895308 34.156119 18.435553 
C 33.551468 16.975798 32.665157 15.64934 31.547909 14.532091 
C 30.43066 13.414843 29.104202 12.528532 27.644447 11.923881 
C 26.184692 11.319231 24.620028 11.008 23.04 11.008 
C 21.459972 11.008 19.895308 11.319231 18.435553 11.923881 
C 16.975798 12.528532 15.64934 13.414843 14.532091 14.532091 
C 13.414843 15.64934 12.528532 16.975798 11.923881 18.435553 
C 11.319231 19.895308 11.008 21.459972 11.008 23.04 
C 11.008 24.620028 11.319231 26.184692 11.923881 27.644447 
C 12.528532 29.104202 13.414843 30.43066 14.532091 31.547909 
C 15.64934 32.665157 16.975798 33.551468 18.435553 34.156119 
C 19.895308 34.760769 21.459972 35.072 23.04 35.072 
C 24.620028 35.072 26.184692 34.760769 27.644447 34.156119 
C 29.104202 33.551468 30.43066 32.665157 31.547909 31.547909 
C 32.665157 30.43066 33.551468 29.104202 34.156119 27.644447 
C 34.760769 26.184692 35.072 24.620028 35.072 23.04 
" clip-path="url(#pa784071670)" style="fill: none; stroke: #e6e6e6; stroke-width: 0.5; stroke-linecap: square"/>
     </g>
    </g>
    <g id="ytick_4">
     <g id="line2d_12">
      <path d="M 39.8848 23.04 
C 39.8848 20.827961 39.449077 18.637432 38.602566 16.593774 
C 37.756055 14.550117 36.51522 12.693075 34.951072 11.128928 
C 33.386925 9.56478 31.529883 8.323945 29.486226 7.477434 
C 27.442568 6.630923 25.252039 6.1952 23.04 6.1952 
C 20.827961 6.1952 18.637432 6.630923 16.593774 7.477434 
C 14.550117 8.323945 12.693075 9.56478 11.128928 11.128928 
C 9.56478 12.693075 8.323945 14.550117 7.477434 16.593774 
C 6.630923 18.637432 6.1952 20.827961 6.1952 23.04 
C 6.1952 25.252039 6.630923 27.442568 7.477434 29.486226 
C 8.323945 31.529883 9.56478 33.386925 11.128928 34.951072 
C 12.693075 36.51522 14.550117 37.756055 16.593774 38.602566 
C 18.637432 39.449077 20.827961 39.8848 23.04 39.8848 
C 25.252039 39.8848 27.442568 39.449077 29.486226 38.602566 
C 31.529883 37.756055 33.386925 36.51522 34.951072 34.951072 
C 36.51522 33.386925 37.756055 31.529883 38.602566 29.486226 
C 39.449077 27.442568 39.8848 25.252039 39.8848 23.04 
" clip-path="url(#pa784071670)" style="fill: none; stroke: #e6e6e6; stroke-width: 0.5; stroke-linecap: square"/>
     </g>
    </g>
   </g>
   <g id="patch_4">
    <path d="M 23.04 23.04 
C 23.04 23.04 23.04 23.04 23.04 23.04 
C 23.04 23.04 23.04 23.04 23.04 23.04 
L 27.617245 21.552763 
C 27.695156 21.79255 27.754105 22.038089 27.793546 22.287112 
C 27.832988 22.536135 27.8528 22.787873 27.8528 23.04 
z
" clip-path="url(#pa784071670)" style="fill: #004cff; fill-opacity: 0.6; stroke: #4c4c4c; stroke-width: 0.7; stroke-linejoin: miter"/>
   </g>
   <g id="patch_5">
    <path d="M 23.04 23.04 
C 23.04 23.04 23.04 23.04 23.04 23.04 
C 23.04 23.04 23.04 23.04 23.04 23.04 
L 28.11329 9.522266 
C 28.821441 9.78804 29.507613 10.109049 30.165469 10.48233 
C 30.823325 10.85561 31.450832 11.280008 32.042195 11.751604 
z
" clip-path="url(#pa784071670)" style="fill: #ceff29; fill-opacity: 0.6; stroke: #4c4c4c; stroke-width: 0.7; stroke-linejoin: miter"/>
   </g>
   <g id="patch_6">
    <path d="M 23.04 23.04 
C 23.04 23.04 23.04 23.04 23.04 23.04 
C 23.04 23.04 23.04 23.04 23.04 23.04 
L 10.702375 8.261918 
C 11.864384 7.291803 13.136769 6.46212 14.49314 5.790076 
C 15.849511 5.118032 17.280425 4.608305 18.756205 4.271468 
z
" clip-path="url(#pa784071670)" style="fill: #ff6800; fill-opacity: 0.6; stroke: #4c4c4c; stroke-width: 0.7; stroke-linejoin: miter"/>
   </g>
   <g id="patch_7">
    <path d="M 23.04 23.04 
C 23.04 23.04 23.04 23.04 23.04 23.04 
C 23.04 23.04 23.04 23.04 23.04 23.04 
L 6.465903 26.047755 
C 6.150285 24.308559 6.110378 22.530473 6.347649 20.778867 
C 6.584921 19.027262 7.096426 17.32387 7.86336 15.731315 
z
" clip-path="url(#pa784071670)" style="fill: #ffc400; fill-opacity: 0.6; stroke: #4c4c4c; stroke-width: 0.7; stroke-linejoin: miter"/>
   </g>
   <g id="patch_8">
    <path d="M 23.04 23.04 
C 23.04 23.04 23.04 23.04 23.04 23.04 
C 23.04 23.04 23.04 23.04 23.04 23.04 
L 15.127737 28.52163 
C 14.98421 28.314461 14.848874 28.101734 14.722044 27.883943 
C 14.595214 27.666151 14.476986 27.443463 14.367634 27.216391 
z
" clip-path="url(#pa784071670)" style="fill: #29ffce; fill-opacity: 0.6; stroke: #4c4c4c; stroke-width: 0.7; stroke-linejoin: miter"/>
   </g>
   <g id="patch_9">
    <path d="M 23.04 23.04 
C 23.04 23.04 23.04 23.04 23.04 23.04 
C 23.04 23.04 23.04 23.04 23.04 23.04 
L 25.055435 34.902 
C 24.278446 35.034016 23.490362 35.089371 22.702547 35.067267 
C 21.914733 35.045163 21.130993 34.945707 20.362628 34.770333 
z
" clip-path="url(#pa784071670)" style="fill: #7dff7a; fill-opacity: 0.6; stroke: #4c4c4c; stroke-width: 0.7; stroke-linejoin: miter"/>
   </g>
   <g id="patch_10">
    <path d="M 23.04 23.04 
C 23.04 23.04 23.04 23.04 23.04 23.04 
C 23.04 23.04 23.04 23.04 23.04 23.04 
L 38.224917 34.873301 
C 37.76009 35.469784 37.26052 36.03836 36.728806 36.576073 
C 36.197092 37.113787 35.634157 37.619704 35.042927 38.091194 
z
" clip-path="url(#pa784071670)" style="fill: #ff6800; fill-opacity: 0.6; stroke: #4c4c4c; stroke-width: 0.7; stroke-linejoin: miter"/>
   </g>
   <g id="patch_11">
    <path d="M 44.6976 23.04 
C 44.6976 20.19595 44.137384 17.379555 43.049013 14.751995 
C 41.960643 12.124436 40.365283 9.736811 38.354236 7.725764 
C 36.343189 5.714717 33.955564 4.119357 31.328005 3.030987 
C 28.700445 1.942616 25.88405 1.3824 23.04 1.3824 
C 20.19595 1.3824 17.379555 1.942616 14.751995 3.030987 
C 12.124436 4.119357 9.736811 5.714717 7.725764 7.725764 
C 5.714717 9.736811 4.119357 12.124436 3.030987 14.751995 
C 1.942616 17.379555 1.3824 20.19595 1.3824 23.04 
C 1.3824 25.88405 1.942616 28.700445 3.030987 31.328005 
C 4.119357 33.955564 5.714717 36.343189 7.725764 38.354236 
C 9.736811 40.365283 12.124436 41.960643 14.751995 43.049013 
C 17.379555 44.137384 20.19595 44.6976 23.04 44.6976 
C 25.88405 44.6976 28.700445 44.137384 31.328005 43.049013 
C 33.955564 41.960643 36.343189 40.365283 38.354236 38.354236 
C 40.365283 36.343189 41.960643 33.955564 43.049013 31.328005 
C 44.137384 28.700445 44.6976 25.88405 44.6976 23.04 
" style="fill: none; stroke: #11557c; stroke-linejoin: miter; stroke-linecap: square"/>
   </g>
  </g>
 </g>
 <defs>
  <clipPath id="pa784071670">
   <path d="M 44.6976 23.04 
C 44.6976 20.19595 44.137384 17.379555 43.049013 14.751995 
C 41.960643 12.124436 40.365283 9.736811 38.354236 7.725764 
C 36.343189 5.714717 33.955564 4.119357 31.328005 3.030987 
C 28.700445 1.942616 25.88405 1.3824 23.04 1.3824 
C 20.19595 1.3824 17.379555 1.942616 14.751995 3.030987 
C 12.124436 4.119357 9.736811 5.714717 7.725764 7.725764 
C 5.714717 9.736811 4.119357 12.124436 3.030987 14.751995 
C 1.942616 17.379555 1.3824 20.19595 1.3824 23.04 
C 1.3824 25.88405 1.942616 28.700445 3.030987 31.328005 
C 4.119357 33.955564 5.714717 36.343189 7.725764 38.354236 
C 9.736811 40.365283 12.124436 41.960643 14.751995 43.049013 
C 17.379555 44.137384 20.19595 44.6976 23.04 44.6976 
C 25.88405 44.6976 28.700445 44.137384 31.328005 43.049013 
C 33.955564 41.960643 36.343189 40.365283 38.354236 38.354236 
C 40.365283 36.343189 41.960643 33.955564 43.049013 31.328005 
C 44.137384 28.700445 44.6976 25.88405 44.6976 23.04 
M 23.04 23.04 
C 23.04 23.04 23.04 23.04 23.04 23.04 
C 23.04 23.04 23.04 23.04 23.04 23.04 
C 23.04 23.04 23.04 23.04 23.04 23.04 
C 23.04 23.04 23.04 23.04 23.04 23.04 
C 23.04 23.04 23.04 23.04 23.04 23.04 
C 23.04 23.04 23.04 23.04 23.04 23.04 
C 23.04 23.04 23.04 23.04 23.04 23.04 
C 23.04 23.04 23.04 23.04 23.04 23.04 
C 23.04 23.04 23.04 23.04 23.04 23.04 
C 23.04 23.04 23.04 23.04 23.04 23.04 
C 23.04 23.04 23.04 23.04 23.04 23.04 
C 23.04 23.04 23.04 23.04 23.04 23.04 
C 23.04 23.04 23.04 23.04 23.04 23.04 
C 23.04 23.04 23.04 23.04 23.04 23.04 
C 23.04 23.04 23.04 23.04 23.04 23.04 
C 23.04 23.04 23.04 23.04 23.04 23.04 
z
"/>
  </clipPath>
 </defs>
</svg>
